# xmcd CD database file
#
# Track frame offsets:
#	150
#	18220
#	39015
#	62450
#	78915
#	95832
#	115707
#	138842
#	162705
#	187415
#	194255
#	221102
#
# Disc length: 3385 seconds
#
# Revision: 0
# Processed by: cddbd v1.4PL0 Copyright (c) Steve Scherf et al.
# Submitted via: CDex 1.50
#
DISCID=a20d370c
DTITLE=William Eaton Ensemble - Naked In Eureka
DYEAR=1900
DGENRE=New Age
TTITLE0=Naked In Eureka
TTITLE1=Pollen Dance
TTITLE2=A Stone's Throw
TTITLE3=Far East Mid West
TTITLE4=Discovering Fire
TTITLE5=Cavern Of The Wind Spirit
TTITLE6=Longing For Kali
TTITLE7=Toltecs On The Balcony
TTITLE8=San Juan Wedding
TTITLE9=Diamond In The Sky
TTITLE10=Tansen's Waltz
TTITLE11=The Fire Within
EXTD=
EXTT0=
EXTT1=
EXTT2=
EXTT3=
EXTT4=
EXTT5=
EXTT6=
EXTT7=
EXTT8=
EXTT9=
EXTT10=
EXTT11=
PLAYORDER=
